<svg id="visual" viewBox="0 0 1980 1080" width="1980" height="1080" xmlns="http://www.w3.org/2000/svg" xmlns:xlink="http://www.w3.org/1999/xlink" version="1.1"><rect x="0" y="0" width="1980" height="1080" fill="#FFFFFF"></rect><defs><linearGradient id="grad1_0" x1="45.5%" y1="0%" x2="100%" y2="100%"><stop offset="13.333333333333334%" stop-color="#ffffff" stop-opacity="1"></stop><stop offset="86.66666666666667%" stop-color="#ffffff" stop-opacity="1"></stop></linearGradient></defs><defs><linearGradient id="grad2_0" x1="0%" y1="0%" x2="54.5%" y2="100%"><stop offset="13.333333333333334%" stop-color="#ffffff" stop-opacity="1"></stop><stop offset="86.66666666666667%" stop-color="#ffffff" stop-opacity="1"></stop></linearGradient></defs><g transform="translate(1980, 0)"><path d="M0 486C-60 465.2 -120.1 444.4 -173 417.6C-225.9 390.8 -271.6 358 -320.3 320.3C-369.1 282.7 -420.9 240.2 -449 186C-477.1 131.8 -481.6 65.9 -486 0L0 0Z" fill="#43D685"></path></g><g transform="translate(0, 1080)"><path d="M0 -486C54.3 -455.1 108.7 -424.3 167.2 -403.7C225.8 -383.2 288.5 -372.9 338.7 -338.7C388.9 -304.5 426.5 -246.4 449 -186C471.5 -125.5 478.7 -62.8 486 0L0 0Z" fill="#43D685"></path></g></svg>